# xmcd
#
# Track frame offsets:
# 150
# 13679
# 21226
# 68481
# 75418
# 116452
# 124654
# 141824
#
# Disc length: 1960 seconds
#
# Revision: 0
# Processed by: cddbd v1.4PL0 Copyright (c) Steve Scherf et al.
# Submitted via: MacMP3 Pro 5.0 (http://mp3.act2.co.jp/)
#
DISCID=5b07a608
DTITLE=*** - ***
DYEAR=1900
DGENRE=
TTITLE0=*
TTITLE1=*
TTITLE2=*
TTITLE3=*
TTITLE4=*
TTITLE5=*
TTITLE6=*
TTITLE7=*
EXTD=
EXTT0=
EXTT1=
EXTT2=
EXTT3=
EXTT4=
EXTT5=
EXTT6=
EXTT7=
PLAYORDER=
